<?xml version="1.0" encoding="UTF-8"?>
<svg id="Ebene_1" data-name="Ebene 1" xmlns="http://www.w3.org/2000/svg" viewBox="0 0 307.55 84.17">
<defs>
<style>
      .cls-1 {
        fill: #636360;
      }
 
      .cls-2 {
        fill: #222;
      }
 
      .cls-3 {
        fill: #f7f702;
      }
 
      .cls-4 {
        fill: #e33c38;
      }
 
      .cls-5 {
        fill: #282727;
      }
 
      .cls-6 {
        fill: #fafafa;
      }
 
      .cls-7 {
        fill: #272623;
      }
 
      .cls-8 {
        fill: #232222;
      }
 
      .cls-9 {
        fill: #e43935;
      }
</style>
</defs>
<path class="cls-5" d="M280.55,58.22c6.09-.16,17.55-.86,23.07.03,1.8.29,2.56,1.47,3.94,2.37v8.4c-.94.42-1.66,1.59-2.55,1.95-2.2.87-27.73.9-31.37.47s-4.28-2.12-4.49-5.42c-.58-9.36,4.17-7.62,11.4-7.8Z"/>
<path class="cls-9" d="M134.7,7.2c4.15.04,8.48-.23,12.6,0,3.56.19,6.09.12,6.61,4.49,1.57,13.03-7.91,5.43-11.75,9.28-1.15,1.15-1.44,4.39.08,4.76,13.37-2.22,27-6.2,40.35-8.14,18.54-2.69,18.8,8.63,30.69,17.54,1.16.87,2.21,1.28,3.63,1.48-9.64,6.25-14.19,19.04-10.8,30.01l-9.6,3c1.64-3.06,5.87-9.79,3.64-12.95-.93-.89-2.04-1.44-3.35-1.5-3.21-.13-15.53,4.28-19.98,5.25-19.87,4.34-45.55,5.83-65.86,4.42-10.56-.74-11.18-5.05-18.7-9.51-8.96-5.32-19.02-2.35-28.93-3.18-1-6.21-6.69-13.13-12.06-16.14.04-3.57-.87-7.5,2.82-9.48,11.81-.19,21.41-1.45,31.79-7.22,3.82-2.12,7.4-5.31,11.37-7.23,12.08-5.82,24.39-5.01,37.44-4.87ZM198.92,33.01c-2.74-3.04-6.04-7.68-10.52-7.83l-33.29,6.64c-.17.23.79,1.19.9,1.19h42.91Z"/>
<path class="cls-8" d="M38.68,33.01c4.39,0,8.73.82,12.6,3,5.37,3.02,11.07,9.93,12.06,16.14,9.91.83,19.97-2.14,28.93,3.18,7.52,4.46,8.14,8.77,18.7,9.51,20.31,1.42,45.99-.07,65.86-4.42,4.46-.97,16.77-5.38,19.98-5.25,1.31.05,2.42.6,3.35,1.5,2.23,3.15-2.01,9.89-3.64,12.95-1.96,3.67-3.08,8.19-8.1,8.4l-132.06-.03c-3.53,1.26-6.31,3.9-10,5.01-12.28,3.7-22.98-1.76-30.3-11.47-8.27-.76-17.88,3.18-15.76-9.38.94-5.59,8.47-3.56,12.54-3.97.44-.43.39-5.08.63-5.97,3.05-11.33,13.67-19.2,25.21-19.21ZM34.32,38.56c-20.85,3.23-21.21,36.72.61,39.91,31.61,4.63,31.93-44.96-.61-39.91Z"/>
<path class="cls-9" d="M38.68,33.01c-11.54,0-22.16,7.88-25.21,19.21-2.79-1.98-11.96-4.66-12.93-7.77C-.16,42.23-.09,27.17.25,24.29s1.65-4.25,4.48-4.52c9.64-.94,21.16.56,30.98.31,4.64,1.45,2.52,9.2,2.97,12.94Z"/>
<path class="cls-7" d="M254.74,49.21c1.66,4.63,2.13,9.59,1.2,14.4-4.96,25.8-42.34,27.18-49.81,3-3.39-10.96,1.16-23.76,10.8-30.01,13.21-8.57,32.5-2.14,37.81,12.6ZM226.99,38.57c-24.72,3.59-20.37,43.65,6.99,40.01,24.75-3.3,21.75-44.18-6.99-40.01Z"/>
<path class="cls-4" d="M280.55,58.22c-7.23.19-11.98-1.56-11.4,7.8l-13.2-2.4c.92-4.82.46-9.78-1.2-14.4l25.81,9Z"/>
<path class="cls-2" d="M147.31,7.2c-4.12-.23-8.45.04-12.6,0-1.6-4.94-8.28-1.9-10.24-3.26-1.15-.8-.54-3.94.33-3.94h15.6l6.9,7.2Z"/>
<path class="cls-3" d="M34.32,38.56c32.54-5.05,32.23,44.54.61,39.91-21.82-3.19-21.47-36.68-.61-39.91ZM36.13,42.77c-19.41,2.77-16.31,32.8,3.43,31.66,21.41-1.23,18.69-34.81-3.43-31.66Z"/>
<path class="cls-3" d="M226.99,38.57c28.74-4.17,31.74,36.71,6.99,40.01-27.37,3.64-31.72-36.42-6.99-40.01ZM228.19,42.77c-19.41,2.77-16.31,32.8,3.43,31.66,21.41-1.23,18.69-34.81-3.43-31.66Z"/>
<path class="cls-1" d="M36.13,42.77c22.12-3.15,24.84,30.43,3.43,31.66-19.73,1.14-22.84-28.89-3.43-31.66ZM36.7,52.34c-6.44,1.48-6.01,12.28,1.67,12.53,9.89.31,8.56-14.88-1.67-12.53Z"/>
<path class="cls-1" d="M228.19,42.77c22.12-3.15,24.84,30.43,3.43,31.66-19.73,1.14-22.84-28.89-3.43-31.66ZM228.76,52.34c-6.44,1.48-6.01,12.28,1.67,12.53,9.89.31,8.56-14.88-1.67-12.53Z"/>
<path class="cls-6" d="M36.7,52.34c10.23-2.35,11.57,12.84,1.67,12.53-7.68-.24-8.11-11.04-1.67-12.53Z"/>
<path class="cls-6" d="M228.76,52.34c10.23-2.35,11.57,12.84,1.67,12.53-7.68-.24-8.11-11.04-1.67-12.53Z"/>
</svg>